PathFileType	4	(X/Y/Z)	C:\Users\italobelli\Desktop\GitHub\PTbot_officialCBL\Personal_Results\ABD03_noisy1.trc
DataRate	CameraRate	NumFrames	NumMarkers	Units	OrigDataRate	OrigDataStartFrame	OrigNumFrames
106.533333	106.533333	21	9	m	106.533333	701	800
Frame#	Time		gu		centelbow		EpL		centpxt8		centijc7		ij		ts		aa		ai
			X1	Y1	Z1	X2	Y2	Z2	X3	Y3	Z3	X4	Y4	Z4	X5	Y5	Z5	X6	Y6	Z6	X7	Y7	Z7	X8	Y8	Z8	X9	Y9	Z9

701	6.5707	-0.10083	-0.0048716	0.1678	-0.12048	-0.25745	0.19584	-0.1197	-0.25167	0.22727	-0.046816	-0.15316	-0.008669	-0.046816	0.031938	-0.008669	0	0	0	-0.13237	0.029006	0.040559	-0.13437	0.030729	0.15973	-0.14084	-0.083841	0.047543
702	6.5801	-0.10088	-0.0048585	0.16773	-0.12063	-0.25734	0.19613	-0.11975	-0.25153	0.22752	-0.046816	-0.15316	-0.008669	-0.046816	0.031938	-0.008669	0	0	0	-0.13244	0.028958	0.040525	-0.1344	0.030755	0.15969	-0.14093	-0.083869	0.04761
703	6.5895	-0.10094	-0.0048434	0.16766	-0.12081	-0.25723	0.19645	-0.11983	-0.25139	0.22781	-0.046816	-0.15316	-0.008669	-0.046816	0.031938	-0.008669	0	0	0	-0.13251	0.028907	0.040489	-0.13444	0.030785	0.15965	-0.14102	-0.083902	0.047678
704	6.5989	-0.101	-0.0048265	0.16758	-0.12102	-0.25712	0.1968	-0.11994	-0.25125	0.22812	-0.046816	-0.15316	-0.008669	-0.046816	0.031938	-0.008669	0	0	0	-0.13257	0.028853	0.040451	-0.13449	0.030816	0.15961	-0.14111	-0.083939	0.047747
705	6.6083	-0.10107	-0.0048079	0.1675	-0.12126	-0.25701	0.19718	-0.12008	-0.2511	0.22847	-0.046816	-0.15316	-0.008669	-0.046816	0.031938	-0.008669	0	0	0	-0.13264	0.028796	0.040412	-0.13454	0.03085	0.15956	-0.14121	-0.083981	0.047817
706	6.6176	-0.10116	-0.0047877	0.16743	-0.12152	-0.2569	0.19758	-0.12024	-0.25095	0.22884	-0.046816	-0.15316	-0.008669	-0.046816	0.031938	-0.008669	0	0	0	-0.13271	0.028736	0.04037	-0.1346	0.030887	0.15951	-0.1413	-0.084026	0.047888
707	6.627	-0.10124	-0.0047661	0.16735	-0.1218	-0.25679	0.19801	-0.12043	-0.2508	0.22923	-0.046816	-0.15316	-0.008669	-0.046816	0.031938	-0.008669	0	0	0	-0.13278	0.028673	0.040327	-0.13466	0.030926	0.15946	-0.14138	-0.084075	0.047959
708	6.6364	-0.10134	-0.0047432	0.16727	-0.1221	-0.25667	0.19846	-0.12063	-0.25065	0.22965	-0.046816	-0.15316	-0.008669	-0.046816	0.031938	-0.008669	0	0	0	-0.13285	0.028607	0.040282	-0.13473	0.030966	0.15941	-0.14147	-0.084128	0.048032
709	6.6458	-0.10144	-0.004719	0.16719	-0.12243	-0.25656	0.19893	-0.12086	-0.25049	0.2301	-0.046816	-0.15316	-0.008669	-0.046816	0.031938	-0.008669	0	0	0	-0.13292	0.028539	0.040236	-0.1348	0.031008	0.15936	-0.14156	-0.084184	0.048105
710	6.6552	-0.10155	-0.0046939	0.1671	-0.12277	-0.25644	0.19942	-0.12111	-0.25034	0.23056	-0.046816	-0.15316	-0.008669	-0.046816	0.031938	-0.008669	0	0	0	-0.13299	0.028469	0.040189	-0.13487	0.031052	0.1593	-0.14165	-0.084244	0.048179
711	6.6646	-0.10166	-0.0046678	0.16702	-0.12313	-0.25632	0.19993	-0.12138	-0.25018	0.23104	-0.046816	-0.15316	-0.008669	-0.046816	0.031938	-0.008669	0	0	0	-0.13305	0.028396	0.04014	-0.13495	0.031098	0.15925	-0.14173	-0.084307	0.048254
712	6.674	-0.10177	-0.004641	0.16694	-0.12351	-0.2562	0.20045	-0.12166	-0.25002	0.23154	-0.046816	-0.15316	-0.008669	-0.046816	0.031938	-0.008669	0	0	0	-0.13312	0.02832	0.040091	-0.13503	0.031144	0.15919	-0.14181	-0.084374	0.048329
713	6.6834	-0.10189	-0.0046135	0.16686	-0.1239	-0.25609	0.20099	-0.12195	-0.24986	0.23205	-0.046816	-0.15316	-0.008669	-0.046816	0.031938	-0.008669	0	0	0	-0.13319	0.028242	0.04004	-0.13512	0.031192	0.15914	-0.14189	-0.084443	0.048404
714	6.6927	-0.10202	-0.0045855	0.16677	-0.1243	-0.25597	0.20154	-0.12226	-0.24969	0.23258	-0.046816	-0.15316	-0.008669	-0.046816	0.031938	-0.008669	0	0	0	-0.13326	0.028162	0.039989	-0.1352	0.031241	0.15908	-0.14197	-0.084516	0.048481
715	6.7021	-0.10215	-0.0045572	0.16669	-0.12472	-0.25584	0.2021	-0.12258	-0.24953	0.23312	-0.046816	-0.15316	-0.008669	-0.046816	0.031938	-0.008669	0	0	0	-0.13333	0.02808	0.039938	-0.13529	0.03129	0.15903	-0.14205	-0.084591	0.048557
716	6.7115	-0.10228	-0.0045286	0.16661	-0.12515	-0.25572	0.20267	-0.12291	-0.24936	0.23367	-0.046816	-0.15316	-0.008669	-0.046816	0.031938	-0.008669	0	0	0	-0.1334	0.027996	0.039886	-0.13538	0.03134	0.15897	-0.14213	-0.084669	0.048634
717	6.7209	-0.10241	-0.0044999	0.16652	-0.12559	-0.2556	0.20325	-0.12325	-0.2492	0.23422	-0.046816	-0.15316	-0.008669	-0.046816	0.031938	-0.008669	0	0	0	-0.13346	0.02791	0.039834	-0.13547	0.031391	0.15891	-0.1422	-0.08475	0.048711
718	6.7303	-0.10254	-0.0044713	0.16644	-0.12603	-0.25548	0.20383	-0.1236	-0.24903	0.23479	-0.046816	-0.15316	-0.008669	-0.046816	0.031938	-0.008669	0	0	0	-0.13353	0.027822	0.039781	-0.13556	0.031442	0.15885	-0.14228	-0.084833	0.048789
719	6.7397	-0.10268	-0.0044428	0.16636	-0.12648	-0.25535	0.20441	-0.12395	-0.24886	0.23536	-0.046816	-0.15316	-0.008669	-0.046816	0.031938	-0.008669	0	0	0	-0.1336	0.027732	0.039729	-0.13566	0.031492	0.1588	-0.14235	-0.084919	0.048867
720	6.7491	-0.10282	-0.0044146	0.16628	-0.12694	-0.25523	0.205	-0.12431	-0.24869	0.23593	-0.046816	-0.15316	-0.008669	-0.046816	0.031938	-0.008669	0	0	0	-0.13366	0.027641	0.039676	-0.13575	0.031543	0.15874	-0.14242	-0.085006	0.048944
721	6.7584	-0.10295	-0.0043868	0.16619	-0.1274	-0.2551	0.20559	-0.12467	-0.24852	0.2365	-0.046816	-0.15316	-0.008669	-0.046816	0.031938	-0.008669	0	0	0	-0.13373	0.027548	0.039624	-0.13584	0.031594	0.15868	-0.14248	-0.085096	0.049022
